M48
; DRILL file {KiCad (6.0.9)} date Tue Dec 20 13:31:58 2022
; FORMAT={-:-/ absolute / inch / decimal}
; #@! TF.CreationDate,2022-12-20T13:31:58+02:00
; #@! TF.GenerationSoftware,Kicad,Pcbnew,(6.0.9)
; #@! TF.FileFunction,MixedPlating,1,2
FMAT,2
INCH
; #@! TA.AperFunction,Plated,PTH,ComponentDrill
T1C0.0394
; #@! TA.AperFunction,Plated,PTH,ComponentDrill
T2C0.0598
; #@! TA.AperFunction,NonPlated,NPTH,ComponentDrill
T3C0.1083
%
G90
G05
T1
X4.6785Y-4.5869
X4.6785Y-4.6869
X4.7785Y-4.5869
X4.7785Y-4.6869
X4.8785Y-4.5869
X4.8785Y-4.6869
X4.9785Y-4.5869
X4.9785Y-4.6869
X5.0785Y-4.5869
X5.0785Y-4.6869
X5.1785Y-4.5869
X5.1785Y-4.6869
X5.2785Y-4.5869
X5.2785Y-4.6869
X5.3785Y-4.5869
X5.3785Y-4.6869
X5.4785Y-4.5869
X5.4785Y-4.6869
X5.5785Y-4.5869
X5.5785Y-4.6869
X5.6785Y-4.5869
X5.6785Y-4.6869
X5.7785Y-4.5869
X5.7785Y-4.6869
X5.8785Y-4.5869
X5.8785Y-4.6869
X5.9785Y-4.5869
X5.9785Y-4.6869
X6.0785Y-4.5869
X6.0785Y-4.6869
X6.1785Y-4.5869
X6.1785Y-4.6869
X6.2785Y-4.5869
X6.2785Y-4.6869
X6.3785Y-4.5869
X6.3785Y-4.6869
X6.4785Y-4.5869
X6.4785Y-4.6869
X6.5785Y-4.5869
X6.5785Y-4.6869
T2
X1.19Y-4.83
X1.19Y-5.03
X1.2Y-2.03
X1.2Y-2.83
X1.4Y-2.03
X1.4Y-2.83
X1.8Y-2.02
X1.8Y-2.83
X2.0Y-2.02
X2.0Y-2.83
X2.4Y-2.02
X2.4Y-2.83
X2.6Y-2.02
X2.6Y-2.83
X3.0Y-2.02
X3.0Y-2.83
X3.2Y-2.02
X3.2Y-2.83
X3.6Y-2.01
X3.6Y-2.83
X3.8Y-2.01
X3.8Y-2.83
X4.2Y-2.01
X4.2Y-2.83
X4.4Y-2.01
X4.4Y-2.83
X4.8Y-2.0
X4.8Y-2.83
X5.0Y-2.0
X5.0Y-2.83
X5.4Y-2.0
X5.4Y-2.83
X5.6Y-2.0
X5.6Y-2.83
X6.0Y-2.0
X6.0Y-2.82
X6.2Y-2.0
X6.2Y-2.82
X6.6Y-2.0
X6.6Y-2.82
X6.8Y-2.0
X6.8Y-2.82
X7.2Y-2.0
X7.2Y-2.82
X7.4Y-2.0
X7.4Y-2.82
X7.8Y-2.0
X7.8Y-2.82
X8.0Y-2.0
X8.0Y-2.82
X8.4Y-2.0
X8.4Y-2.82
X8.6Y-2.0
X8.6Y-2.82
X9.0Y-2.0
X9.0Y-2.82
X9.2Y-2.0
X9.2Y-2.82
X9.6Y-2.0
X9.6Y-2.82
X9.8Y-2.0
X9.8Y-2.82
X10.2Y-1.99
X10.2Y-2.82
X10.3Y-4.03
X10.3Y-4.23
X10.3Y-4.63
X10.3Y-4.83
X10.4Y-1.99
X10.4Y-2.82
T3
X4.4868Y-4.6369
X4.4868Y-5.5424
X6.7703Y-4.6369
X6.7703Y-5.5424
T0
M30
