%TF.GenerationSoftware,KiCad,Pcbnew,(6.0.9)*%
%TF.CreationDate,2022-12-20T13:31:30+02:00*%
%TF.ProjectId,piPDU,70695044-552e-46b6-9963-61645f706362,rev?*%
%TF.SameCoordinates,Original*%
%TF.FileFunction,Copper,L1,Top*%
%TF.FilePolarity,Positive*%
%FSLAX46Y46*%
G04 Gerber Fmt 4.6, Leading zero omitted, Abs format (unit mm)*
G04 Created by KiCad (PCBNEW (6.0.9)) date 2022-12-20 13:31:30*
%MOMM*%
%LPD*%
G01*
G04 APERTURE LIST*
%TA.AperFunction,ComponentPad*%
%ADD10R,3.000000X3.000000*%
%TD*%
%TA.AperFunction,ComponentPad*%
%ADD11C,3.000000*%
%TD*%
%TA.AperFunction,ComponentPad*%
%ADD12R,1.700000X1.700000*%
%TD*%
%TA.AperFunction,ComponentPad*%
%ADD13O,1.700000X1.700000*%
%TD*%
%TA.AperFunction,Conductor*%
%ADD14C,0.250000*%
%TD*%
G04 APERTURE END LIST*
D10*
%TO.P,J17,1,Pin_1*%
%TO.N,GND*%
X152400000Y-71628000D03*
D11*
%TO.P,J17,2,Pin_2*%
%TO.N,LED9*%
X157480000Y-71628000D03*
%TD*%
D10*
%TO.P,J13,1,Pin_1*%
%TO.N,GND*%
X121920000Y-71882000D03*
D11*
%TO.P,J13,2,Pin_2*%
%TO.N,LED7*%
X127000000Y-71882000D03*
%TD*%
D10*
%TO.P,J16,1,Pin_1*%
%TO.N,row8*%
X152400000Y-50800000D03*
D11*
%TO.P,J16,2,Pin_2*%
%TO.N,col1*%
X157480000Y-50800000D03*
%TD*%
D10*
%TO.P,J25,1,Pin_1*%
%TO.N,GND*%
X213360000Y-71628000D03*
D11*
%TO.P,J25,2,Pin_2*%
%TO.N,LED13*%
X218440000Y-71628000D03*
%TD*%
D10*
%TO.P,J11,1,Pin_1*%
%TO.N,GND*%
X106680000Y-71882000D03*
D11*
%TO.P,J11,2,Pin_2*%
%TO.N,LED6*%
X111760000Y-71882000D03*
%TD*%
D10*
%TO.P,J28,1,Pin_1*%
%TO.N,row2*%
X243840000Y-50800000D03*
D11*
%TO.P,J28,2,Pin_2*%
%TO.N,col1*%
X248920000Y-50800000D03*
%TD*%
D10*
%TO.P,J27,1,Pin_1*%
%TO.N,GND*%
X228600000Y-71628000D03*
D11*
%TO.P,J27,2,Pin_2*%
%TO.N,LED14*%
X233680000Y-71628000D03*
%TD*%
D10*
%TO.P,J12,1,Pin_1*%
%TO.N,row7*%
X121920000Y-50800000D03*
D11*
%TO.P,J12,2,Pin_2*%
%TO.N,col2*%
X127000000Y-50800000D03*
%TD*%
D10*
%TO.P,J31,1,Pin_1*%
%TO.N,GND*%
X259080000Y-71628000D03*
D11*
%TO.P,J31,2,Pin_2*%
%TO.N,LED16*%
X264160000Y-71628000D03*
%TD*%
D10*
%TO.P,J18,1,Pin_1*%
%TO.N,row7*%
X167640000Y-50800000D03*
D11*
%TO.P,J18,2,Pin_2*%
%TO.N,col1*%
X172720000Y-50800000D03*
%TD*%
D10*
%TO.P,J2,1,Pin_1*%
%TO.N,row2*%
X45720000Y-51308000D03*
D11*
%TO.P,J2,2,Pin_2*%
%TO.N,col2*%
X50800000Y-51308000D03*
%TD*%
D10*
%TO.P,J32,1,Pin_1*%
%TO.N,GND*%
X30226000Y-122682000D03*
D11*
%TO.P,J32,2,Pin_2*%
%TO.N,+5V*%
X30226000Y-127762000D03*
%TD*%
D10*
%TO.P,J1,1,Pin_1*%
%TO.N,GND*%
X30480000Y-71882000D03*
D11*
%TO.P,J1,2,Pin_2*%
%TO.N,LED1*%
X35560000Y-71882000D03*
%TD*%
D10*
%TO.P,J8,1,Pin_1*%
%TO.N,row5*%
X91440000Y-51054000D03*
D11*
%TO.P,J8,2,Pin_2*%
%TO.N,col2*%
X96520000Y-51054000D03*
%TD*%
D12*
%TO.P,J35,1,3V3*%
%TO.N,unconnected-(J35-Pad1)*%
X167095000Y-119047000D03*
D13*
%TO.P,J35,2,5V*%
%TO.N,+5V*%
X167095000Y-116507000D03*
%TO.P,J35,3,SDA/GPIO2*%
%TO.N,Net-(J34-Pad1)*%
X164555000Y-119047000D03*
%TO.P,J35,4,5V*%
%TO.N,unconnected-(J35-Pad4)*%
X164555000Y-116507000D03*
%TO.P,J35,5,SCL/GPIO3*%
%TO.N,Net-(J34-Pad2)*%
X162015000Y-119047000D03*
%TO.P,J35,6,GND*%
%TO.N,unconnected-(J35-Pad6)*%
X162015000Y-116507000D03*
%TO.P,J35,7,GCLK0/GPIO4*%
%TO.N,row8*%
X159475000Y-119047000D03*
%TO.P,J35,8,GPIO14/TXD*%
%TO.N,LED16*%
X159475000Y-116507000D03*
%TO.P,J35,9,GND*%
%TO.N,GND*%
X156935000Y-119047000D03*
%TO.P,J35,10,GPIO15/RXD*%
%TO.N,LED15*%
X156935000Y-116507000D03*
%TO.P,J35,11,GPIO17*%
%TO.N,row7*%
X154395000Y-119047000D03*
%TO.P,J35,12,GPIO18/PWM0*%
%TO.N,LED14*%
X154395000Y-116507000D03*
%TO.P,J35,13,GPIO27*%
%TO.N,row6*%
X151855000Y-119047000D03*
%TO.P,J35,14,GND*%
%TO.N,GND*%
X151855000Y-116507000D03*
%TO.P,J35,15,GPIO22*%
%TO.N,row5*%
X149315000Y-119047000D03*
%TO.P,J35,16,GPIO23*%
%TO.N,LED13*%
X149315000Y-116507000D03*
%TO.P,J35,17,3V3*%
%TO.N,unconnected-(J35-Pad17)*%
X146775000Y-119047000D03*
%TO.P,J35,18,GPIO24*%
%TO.N,LED12*%
X146775000Y-116507000D03*
%TO.P,J35,19,MOSI0/GPIO10*%
%TO.N,col1*%
X144235000Y-119047000D03*
%TO.P,J35,20,GND*%
%TO.N,unconnected-(J35-Pad20)*%
X144235000Y-116507000D03*
%TO.P,J35,21,MISO0/GPIO9*%
%TO.N,row1*%
X141695000Y-119047000D03*
%TO.P,J35,22,GPIO25*%
%TO.N,LED11*%
X141695000Y-116507000D03*
%TO.P,J35,23,SCLK0/GPIO11*%
%TO.N,col2*%
X139155000Y-119047000D03*
%TO.P,J35,24,~{CE0}/GPIO8*%
%TO.N,LED10*%
X139155000Y-116507000D03*
%TO.P,J35,25,GND*%
%TO.N,unconnected-(J35-Pad25)*%
X136615000Y-119047000D03*
%TO.P,J35,26,~{CE1}/GPIO7*%
%TO.N,LED9*%
X136615000Y-116507000D03*
%TO.P,J35,27,ID_SD/GPIO0*%
%TO.N,row2*%
X134075000Y-119047000D03*
%TO.P,J35,28,ID_SC/GPIO1*%
%TO.N,LED8*%
X134075000Y-116507000D03*
%TO.P,J35,29,GCLK1/GPIO5*%
%TO.N,row3*%
X131535000Y-119047000D03*
%TO.P,J35,30,GND*%
%TO.N,unconnected-(J35-Pad30)*%
X131535000Y-116507000D03*
%TO.P,J35,31,GCLK2/GPIO6*%
%TO.N,row4*%
X128995000Y-119047000D03*
%TO.P,J35,32,PWM0/GPIO12*%
%TO.N,LED7*%
X128995000Y-116507000D03*
%TO.P,J35,33,PWM1/GPIO13*%
%TO.N,LED1*%
X126455000Y-119047000D03*
%TO.P,J35,34,GND*%
%TO.N,unconnected-(J35-Pad34)*%
X126455000Y-116507000D03*
%TO.P,J35,35,GPIO19/MISO1*%
%TO.N,LED2*%
X123915000Y-119047000D03*
%TO.P,J35,36,GPIO16*%
%TO.N,LED6*%
X123915000Y-116507000D03*
%TO.P,J35,37,GPIO26*%
%TO.N,LED3*%
X121375000Y-119047000D03*
%TO.P,J35,38,GPIO20/MOSI1*%
%TO.N,LED5*%
X121375000Y-116507000D03*
%TO.P,J35,39,GND*%
%TO.N,unconnected-(J35-Pad39)*%
X118835000Y-119047000D03*
%TO.P,J35,40,GPIO21/SCLK1*%
%TO.N,LED4*%
X118835000Y-116507000D03*
%TD*%
D10*
%TO.P,J14,1,Pin_1*%
%TO.N,row8*%
X137160000Y-50800000D03*
D11*
%TO.P,J14,2,Pin_2*%
%TO.N,col2*%
X142240000Y-50800000D03*
%TD*%
D10*
%TO.P,J20,1,Pin_1*%
%TO.N,row6*%
X182880000Y-50800000D03*
D11*
%TO.P,J20,2,Pin_2*%
%TO.N,col1*%
X187960000Y-50800000D03*
%TD*%
D10*
%TO.P,J4,1,Pin_1*%
%TO.N,row3*%
X60960000Y-51308000D03*
D11*
%TO.P,J4,2,Pin_2*%
%TO.N,col2*%
X66040000Y-51308000D03*
%TD*%
D10*
%TO.P,J9,1,Pin_1*%
%TO.N,GND*%
X91440000Y-71882000D03*
D11*
%TO.P,J9,2,Pin_2*%
%TO.N,LED5*%
X96520000Y-71882000D03*
%TD*%
D10*
%TO.P,J23,1,Pin_1*%
%TO.N,GND*%
X198120000Y-71628000D03*
D11*
%TO.P,J23,2,Pin_2*%
%TO.N,LED12*%
X203200000Y-71628000D03*
%TD*%
D10*
%TO.P,J6,1,Pin_1*%
%TO.N,row4*%
X76200000Y-51308000D03*
D11*
%TO.P,J6,2,Pin_2*%
%TO.N,col2*%
X81280000Y-51308000D03*
%TD*%
D10*
%TO.P,J21,1,Pin_1*%
%TO.N,GND*%
X182880000Y-71628000D03*
D11*
%TO.P,J21,2,Pin_2*%
%TO.N,LED11*%
X187960000Y-71628000D03*
%TD*%
D10*
%TO.P,J29,1,Pin_1*%
%TO.N,GND*%
X243840000Y-71628000D03*
D11*
%TO.P,J29,2,Pin_2*%
%TO.N,LED15*%
X248920000Y-71628000D03*
%TD*%
D10*
%TO.P,J0,1,Pin_1*%
%TO.N,row1*%
X30480000Y-51562000D03*
D11*
%TO.P,J0,2,Pin_2*%
%TO.N,col2*%
X35560000Y-51562000D03*
%TD*%
D10*
%TO.P,J15,1,Pin_1*%
%TO.N,GND*%
X137160000Y-71882000D03*
D11*
%TO.P,J15,2,Pin_2*%
%TO.N,LED8*%
X142240000Y-71882000D03*
%TD*%
D10*
%TO.P,J24,1,Pin_1*%
%TO.N,row4*%
X213360000Y-50800000D03*
D11*
%TO.P,J24,2,Pin_2*%
%TO.N,col1*%
X218440000Y-50800000D03*
%TD*%
D10*
%TO.P,J10,1,Pin_1*%
%TO.N,row6*%
X106680000Y-51054000D03*
D11*
%TO.P,J10,2,Pin_2*%
%TO.N,col2*%
X111760000Y-51054000D03*
%TD*%
D10*
%TO.P,J5,1,Pin_1*%
%TO.N,GND*%
X60960000Y-71882000D03*
D11*
%TO.P,J5,2,Pin_2*%
%TO.N,LED3*%
X66040000Y-71882000D03*
%TD*%
D10*
%TO.P,J22,1,Pin_1*%
%TO.N,row5*%
X198120000Y-50800000D03*
D11*
%TO.P,J22,2,Pin_2*%
%TO.N,col1*%
X203200000Y-50800000D03*
%TD*%
D10*
%TO.P,J34,1,Pin_1*%
%TO.N,Net-(J34-Pad1)*%
X261620000Y-102362000D03*
D11*
%TO.P,J34,2,Pin_2*%
%TO.N,Net-(J34-Pad2)*%
X261620000Y-107442000D03*
%TD*%
D10*
%TO.P,J3,1,Pin_1*%
%TO.N,GND*%
X45720000Y-71882000D03*
D11*
%TO.P,J3,2,Pin_2*%
%TO.N,LED2*%
X50800000Y-71882000D03*
%TD*%
D10*
%TO.P,J30,1,Pin_1*%
%TO.N,row1*%
X259080000Y-50546000D03*
D11*
%TO.P,J30,2,Pin_2*%
%TO.N,col1*%
X264160000Y-50546000D03*
%TD*%
D10*
%TO.P,J26,1,Pin_1*%
%TO.N,row3*%
X228600000Y-50800000D03*
D11*
%TO.P,J26,2,Pin_2*%
%TO.N,col1*%
X233680000Y-50800000D03*
%TD*%
D10*
%TO.P,J33,1,Pin_1*%
%TO.N,GND*%
X261620000Y-117602000D03*
D11*
%TO.P,J33,2,Pin_2*%
%TO.N,+5V*%
X261620000Y-122682000D03*
%TD*%
D10*
%TO.P,J19,1,Pin_1*%
%TO.N,GND*%
X167640000Y-71628000D03*
D11*
%TO.P,J19,2,Pin_2*%
%TO.N,LED10*%
X172720000Y-71628000D03*
%TD*%
D10*
%TO.P,J7,1,Pin_1*%
%TO.N,GND*%
X76200000Y-71882000D03*
D11*
%TO.P,J7,2,Pin_2*%
%TO.N,LED4*%
X81280000Y-71882000D03*
%TD*%
D14*
%TO.N,GND*%
X30480000Y-122682000D02*
X35560000Y-122682000D01*
X30480000Y-99822000D02*
X30480000Y-71882000D01*
X45720000Y-69342000D02*
X45720000Y-71882000D01*
X154940000Y-66802000D02*
X165100000Y-66802000D01*
X226060000Y-99822000D02*
X228600000Y-97282000D01*
X185420000Y-66802000D02*
X195580000Y-66802000D01*
X137160000Y-69342000D02*
X139700000Y-66802000D01*
X195580000Y-66802000D02*
X198120000Y-69342000D01*
X36322000Y-105664000D02*
X30480000Y-99822000D01*
X43180000Y-66802000D02*
X45720000Y-69342000D01*
X215900000Y-66802000D02*
X226060000Y-66802000D01*
X106680000Y-69342000D02*
X109220000Y-66802000D01*
X60960000Y-69342000D02*
X63500000Y-66802000D01*
X246380000Y-130302000D02*
X241300000Y-135382000D01*
X259080000Y-69342000D02*
X259080000Y-71882000D01*
X170180000Y-66802000D02*
X180340000Y-66802000D01*
X93980000Y-66802000D02*
X104140000Y-66802000D01*
X151855000Y-116507000D02*
X151855000Y-113067000D01*
X109220000Y-66802000D02*
X119380000Y-66802000D01*
X198120000Y-69342000D02*
X200660000Y-66802000D01*
X228600000Y-69342000D02*
X228600000Y-71882000D01*
X30480000Y-71882000D02*
X30480000Y-69342000D01*
X78740000Y-66802000D02*
X88900000Y-66802000D01*
X256540000Y-66802000D02*
X259080000Y-69342000D01*
X73660000Y-66802000D02*
X76200000Y-69342000D01*
X104140000Y-66802000D02*
X106680000Y-69342000D01*
X156935000Y-119047000D02*
X156935000Y-124677000D01*
X167640000Y-69342000D02*
X170180000Y-66802000D01*
X88900000Y-66802000D02*
X91440000Y-69342000D01*
X231140000Y-66802000D02*
X241300000Y-66802000D01*
X139700000Y-66802000D02*
X149860000Y-66802000D01*
X182880000Y-69342000D02*
X185420000Y-66802000D01*
X241300000Y-66802000D02*
X243840000Y-69342000D01*
X38354000Y-114554000D02*
X38354000Y-107696000D01*
X165100000Y-66802000D02*
X167640000Y-69342000D01*
X30226000Y-122682000D02*
X38354000Y-114554000D01*
X243840000Y-69342000D02*
X243840000Y-71882000D01*
X124460000Y-66802000D02*
X134620000Y-66802000D01*
X121920000Y-69342000D02*
X124460000Y-66802000D01*
X76200000Y-69342000D02*
X76200000Y-71882000D01*
X243840000Y-69342000D02*
X246380000Y-66802000D01*
X60960000Y-69342000D02*
X60960000Y-71882000D01*
X165100000Y-132842000D02*
X167640000Y-135382000D01*
X200660000Y-66802000D02*
X210820000Y-66802000D01*
X63500000Y-66802000D02*
X73660000Y-66802000D01*
X165100000Y-99822000D02*
X226060000Y-99822000D01*
X213360000Y-69342000D02*
X213360000Y-71882000D01*
X180340000Y-66802000D02*
X182880000Y-69342000D01*
X213360000Y-69342000D02*
X215900000Y-66802000D01*
X152400000Y-69342000D02*
X154940000Y-66802000D01*
X246380000Y-122682000D02*
X246380000Y-130302000D01*
X149860000Y-66802000D02*
X152400000Y-69342000D01*
X251460000Y-117602000D02*
X246380000Y-122682000D01*
X228600000Y-97282000D02*
X228600000Y-71882000D01*
X134620000Y-66802000D02*
X137160000Y-69342000D01*
X40640000Y-132842000D02*
X43180000Y-135382000D01*
X91440000Y-69342000D02*
X93980000Y-66802000D01*
X210820000Y-66802000D02*
X213360000Y-69342000D01*
X167640000Y-69342000D02*
X167640000Y-71882000D01*
X76200000Y-69342000D02*
X78740000Y-66802000D01*
X198120000Y-69342000D02*
X198120000Y-71882000D01*
X261620000Y-117602000D02*
X251460000Y-117602000D01*
X40640000Y-127762000D02*
X40640000Y-132842000D01*
X30480000Y-69342000D02*
X33020000Y-66802000D01*
X48260000Y-66802000D02*
X58420000Y-66802000D01*
X119380000Y-66802000D02*
X121920000Y-69342000D01*
X246380000Y-66802000D02*
X256540000Y-66802000D01*
X91440000Y-69342000D02*
X91440000Y-71882000D01*
X167640000Y-135382000D02*
X170180000Y-135382000D01*
X152400000Y-69342000D02*
X152400000Y-71882000D01*
X151855000Y-113067000D02*
X165100000Y-99822000D01*
X121920000Y-71882000D02*
X121920000Y-69342000D01*
X137160000Y-69342000D02*
X137160000Y-71882000D01*
X38354000Y-107696000D02*
X36322000Y-105664000D01*
X35560000Y-122682000D02*
X40640000Y-127762000D01*
X226060000Y-66802000D02*
X228600000Y-69342000D01*
X182880000Y-69342000D02*
X182880000Y-71882000D01*
X45720000Y-69342000D02*
X48260000Y-66802000D01*
X156935000Y-124677000D02*
X165100000Y-132842000D01*
X33020000Y-66802000D02*
X43180000Y-66802000D01*
X43180000Y-135382000D02*
X63500000Y-135382000D01*
X58420000Y-66802000D02*
X60960000Y-69342000D01*
X106680000Y-69342000D02*
X106680000Y-71882000D01*
X241300000Y-135382000D02*
X45720000Y-135382000D01*
X228600000Y-69342000D02*
X231140000Y-66802000D01*
%TO.N,+5V*%
X238760000Y-109982000D02*
X170180000Y-109982000D01*
X266700000Y-97282000D02*
X251460000Y-97282000D01*
X269240000Y-120142000D02*
X269240000Y-99822000D01*
X167095000Y-113067000D02*
X167095000Y-116507000D01*
X30480000Y-127762000D02*
X40640000Y-137922000D01*
X40640000Y-137922000D02*
X256540000Y-137922000D01*
X269240000Y-99822000D02*
X266700000Y-97282000D01*
X266700000Y-122682000D02*
X269240000Y-120142000D01*
X256540000Y-137922000D02*
X261620000Y-132842000D01*
X170180000Y-109982000D02*
X167095000Y-113067000D01*
X251460000Y-97282000D02*
X238760000Y-109982000D01*
X261620000Y-122682000D02*
X266700000Y-122682000D01*
X261620000Y-132842000D02*
X261620000Y-122682000D01*
%TO.N,Net-(J34-Pad1)*%
X248412000Y-102362000D02*
X236728000Y-114046000D01*
X164555000Y-119047000D02*
X164555000Y-124677000D01*
X236728000Y-114046000D02*
X236728000Y-119380000D01*
X261620000Y-102362000D02*
X248412000Y-102362000D01*
X228600000Y-127762000D02*
X228346000Y-127762000D01*
X228346000Y-127762000D02*
X167640000Y-127762000D01*
X164555000Y-124677000D02*
X167640000Y-127762000D01*
X236728000Y-119380000D02*
X228346000Y-127762000D01*
%TO.N,Net-(J34-Pad2)*%
X245872000Y-107442000D02*
X238506000Y-114808000D01*
X238506000Y-114808000D02*
X238506000Y-120142000D01*
X162015000Y-127217000D02*
X165100000Y-130302000D01*
X228346000Y-130302000D02*
X228600000Y-130302000D01*
X238506000Y-120142000D02*
X228346000Y-130302000D01*
X261620000Y-107442000D02*
X245872000Y-107442000D01*
X165100000Y-130302000D02*
X228346000Y-130302000D01*
X162015000Y-119047000D02*
X162015000Y-127217000D01*
%TO.N,col2*%
X99060000Y-46482000D02*
X109220000Y-46482000D01*
X96520000Y-49022000D02*
X96520000Y-51562000D01*
X78740000Y-46482000D02*
X81280000Y-49022000D01*
X93980000Y-46482000D02*
X96520000Y-49022000D01*
X111760000Y-49022000D02*
X114300000Y-46482000D01*
X53340000Y-46482000D02*
X63500000Y-46482000D01*
X129540000Y-46482000D02*
X139700000Y-46482000D01*
X114300000Y-46482000D02*
X124460000Y-46482000D01*
X83820000Y-46482000D02*
X93980000Y-46482000D01*
X38100000Y-46482000D02*
X48260000Y-46482000D01*
X35560000Y-51562000D02*
X35560000Y-49022000D01*
X109220000Y-46482000D02*
X111760000Y-49022000D01*
X66040000Y-49022000D02*
X68580000Y-46482000D01*
X66040000Y-49022000D02*
X66040000Y-51562000D01*
X96520000Y-49022000D02*
X99060000Y-46482000D01*
X50800000Y-49022000D02*
X53340000Y-46482000D01*
X111760000Y-49022000D02*
X111760000Y-51562000D01*
X81280000Y-49022000D02*
X81280000Y-51562000D01*
X127000000Y-49022000D02*
X129540000Y-46482000D01*
X50800000Y-49022000D02*
X50800000Y-51562000D01*
X124460000Y-46482000D02*
X127000000Y-49022000D01*
X68580000Y-46482000D02*
X78740000Y-46482000D01*
X142240000Y-49022000D02*
X142240000Y-51562000D01*
X81280000Y-49022000D02*
X83820000Y-46482000D01*
X35560000Y-49022000D02*
X38100000Y-46482000D01*
X48260000Y-46482000D02*
X50800000Y-49022000D01*
X63500000Y-46482000D02*
X66040000Y-49022000D01*
X139700000Y-46482000D02*
X142240000Y-49022000D01*
X127000000Y-49022000D02*
X127000000Y-51562000D01*
%TO.N,row1*%
X30480000Y-61722000D02*
X33020000Y-64262000D01*
X33020000Y-64262000D02*
X256540000Y-64262000D01*
X259080000Y-61722000D02*
X259080000Y-51562000D01*
X30480000Y-51562000D02*
X30480000Y-61722000D01*
X256540000Y-64262000D02*
X259080000Y-61722000D01*
%TO.N,LED1*%
X93980000Y-130302000D02*
X35560000Y-71882000D01*
X126455000Y-127217000D02*
X123370000Y-130302000D01*
X126455000Y-119047000D02*
X126455000Y-127217000D01*
X123370000Y-130302000D02*
X93980000Y-130302000D01*
%TO.N,row2*%
X241300000Y-61722000D02*
X243840000Y-59182000D01*
X45720000Y-51562000D02*
X45720000Y-59182000D01*
X45720000Y-59182000D02*
X48260000Y-61722000D01*
X243840000Y-59182000D02*
X243840000Y-51562000D01*
X48260000Y-61722000D02*
X241300000Y-61722000D01*
%TO.N,LED2*%
X50800000Y-71882000D02*
X106680000Y-127762000D01*
X119380000Y-127762000D02*
X106680000Y-127762000D01*
X123915000Y-124677000D02*
X123915000Y-119047000D01*
X120830000Y-127762000D02*
X119380000Y-127762000D01*
X123915000Y-124677000D02*
X120830000Y-127762000D01*
%TO.N,row3*%
X60960000Y-56642000D02*
X60960000Y-51562000D01*
X63500000Y-59182000D02*
X60960000Y-56642000D01*
X228600000Y-51562000D02*
X228600000Y-56642000D01*
X226060000Y-59182000D02*
X63500000Y-59182000D01*
X228600000Y-56642000D02*
X226060000Y-59182000D01*
%TO.N,LED3*%
X66040000Y-84582000D02*
X106680000Y-125222000D01*
X121375000Y-123227000D02*
X121375000Y-119047000D01*
X119380000Y-125222000D02*
X121375000Y-123227000D01*
X106680000Y-125222000D02*
X119380000Y-125222000D01*
X66040000Y-71882000D02*
X66040000Y-84582000D01*
%TO.N,row4*%
X210820000Y-56642000D02*
X213360000Y-54102000D01*
X76200000Y-51562000D02*
X76200000Y-54102000D01*
X213360000Y-54102000D02*
X213360000Y-51562000D01*
X76200000Y-54102000D02*
X78740000Y-56642000D01*
X78740000Y-56642000D02*
X210820000Y-56642000D01*
%TO.N,LED4*%
X81280000Y-71882000D02*
X118835000Y-109437000D01*
X118835000Y-109437000D02*
X118835000Y-116507000D01*
%TO.N,LED5*%
X121375000Y-96737000D02*
X121375000Y-116507000D01*
X96520000Y-71882000D02*
X121375000Y-96737000D01*
%TO.N,LED6*%
X111760000Y-71882000D02*
X111760000Y-79502000D01*
X123915000Y-91657000D02*
X123915000Y-116507000D01*
X111760000Y-79502000D02*
X123915000Y-91657000D01*
%TO.N,LED7*%
X127000000Y-83132000D02*
X128995000Y-85127000D01*
X128995000Y-116507000D02*
X128995000Y-85127000D01*
X127000000Y-71882000D02*
X127000000Y-83132000D01*
%TO.N,LED8*%
X134075000Y-116507000D02*
X134075000Y-113067000D01*
X142240000Y-104902000D02*
X142240000Y-71882000D01*
X134075000Y-113067000D02*
X142240000Y-104902000D01*
%TO.N,col1*%
X251460000Y-46482000D02*
X261620000Y-46482000D01*
X218440000Y-49022000D02*
X218440000Y-51562000D01*
X261620000Y-46482000D02*
X264160000Y-49022000D01*
X170180000Y-46482000D02*
X172720000Y-49022000D01*
X187960000Y-49022000D02*
X187960000Y-51562000D01*
X231140000Y-46482000D02*
X233680000Y-49022000D01*
X248920000Y-49022000D02*
X251460000Y-46482000D01*
X185420000Y-46482000D02*
X187960000Y-49022000D01*
X190500000Y-46482000D02*
X200660000Y-46482000D01*
X218440000Y-49022000D02*
X220980000Y-46482000D01*
X205740000Y-46482000D02*
X215900000Y-46482000D01*
X200660000Y-46482000D02*
X203200000Y-49022000D01*
X175260000Y-46482000D02*
X185420000Y-46482000D01*
X160020000Y-46482000D02*
X170180000Y-46482000D01*
X233680000Y-49022000D02*
X233680000Y-51562000D01*
X172720000Y-49022000D02*
X172720000Y-51562000D01*
X157480000Y-49022000D02*
X160020000Y-46482000D01*
X220980000Y-46482000D02*
X231140000Y-46482000D01*
X172720000Y-49022000D02*
X175260000Y-46482000D01*
X236220000Y-46482000D02*
X246380000Y-46482000D01*
X157480000Y-51562000D02*
X157480000Y-49022000D01*
X203200000Y-49022000D02*
X205740000Y-46482000D01*
X215900000Y-46482000D02*
X218440000Y-49022000D01*
X203200000Y-49022000D02*
X203200000Y-51562000D01*
X264160000Y-49022000D02*
X264160000Y-51562000D01*
X248920000Y-49022000D02*
X248920000Y-51562000D01*
X187960000Y-49022000D02*
X190500000Y-46482000D01*
X246380000Y-46482000D02*
X248920000Y-49022000D01*
X233680000Y-49022000D02*
X236220000Y-46482000D01*
%TO.N,LED9*%
X136615000Y-116507000D02*
X136615000Y-113067000D01*
X157480000Y-92202000D02*
X157480000Y-71882000D01*
X136615000Y-113067000D02*
X157480000Y-92202000D01*
%TO.N,LED10*%
X139155000Y-113067000D02*
X162560000Y-89662000D01*
X162560000Y-89662000D02*
X170180000Y-89662000D01*
X139155000Y-116507000D02*
X139155000Y-113067000D01*
X172720000Y-87122000D02*
X172720000Y-71882000D01*
X170180000Y-89662000D02*
X172720000Y-87122000D01*
%TO.N,LED11*%
X187960000Y-89662000D02*
X187960000Y-71882000D01*
X162560000Y-92202000D02*
X185420000Y-92202000D01*
X185420000Y-92202000D02*
X187960000Y-89662000D01*
X141695000Y-113067000D02*
X162560000Y-92202000D01*
X141695000Y-116507000D02*
X141695000Y-113067000D01*
%TO.N,LED12*%
X203200000Y-71882000D02*
X203200000Y-92202000D01*
X146775000Y-113067000D02*
X146775000Y-116507000D01*
X165100000Y-94742000D02*
X146775000Y-113067000D01*
X200660000Y-94742000D02*
X165100000Y-94742000D01*
X203200000Y-92202000D02*
X200660000Y-94742000D01*
%TO.N,LED13*%
X218440000Y-94742000D02*
X218440000Y-71882000D01*
X149315000Y-116507000D02*
X149315000Y-113067000D01*
X149315000Y-113067000D02*
X165100000Y-97282000D01*
X215900000Y-97282000D02*
X218440000Y-94742000D01*
X165100000Y-97282000D02*
X215900000Y-97282000D01*
%TO.N,LED14*%
X233680000Y-99822000D02*
X233680000Y-71882000D01*
X165100000Y-102362000D02*
X231140000Y-102362000D01*
X154395000Y-116507000D02*
X154395000Y-113067000D01*
X231140000Y-102362000D02*
X233680000Y-99822000D01*
X154395000Y-113067000D02*
X165100000Y-102362000D01*
%TO.N,LED15*%
X248920000Y-94742000D02*
X238760000Y-104902000D01*
X156935000Y-113067000D02*
X156935000Y-116507000D01*
X248920000Y-71882000D02*
X248920000Y-94742000D01*
X165100000Y-104902000D02*
X156935000Y-113067000D01*
X238760000Y-104902000D02*
X165100000Y-104902000D01*
%TO.N,LED16*%
X261620000Y-94742000D02*
X264160000Y-92202000D01*
X159475000Y-116507000D02*
X159475000Y-113067000D01*
X251460000Y-94742000D02*
X261620000Y-94742000D01*
X238760000Y-107442000D02*
X251460000Y-94742000D01*
X264160000Y-92202000D02*
X264160000Y-71882000D01*
X165100000Y-107442000D02*
X238760000Y-107442000D01*
X159475000Y-113067000D02*
X165100000Y-107442000D01*
%TD*%
M02*
